<?xml version="1.0" standalone="no"?>
<!DOCTYPE svg PUBLIC "-//W3C//DTD SVG 20010904//EN"
 "http://www.w3.org/TR/2001/REC-SVG-20010904/DTD/svg10.dtd">
<svg version="1.0" xmlns="http://www.w3.org/2000/svg"
 width="680.000000pt" height="680.000000pt" viewBox="0 0 680.000000 680.000000"
 preserveAspectRatio="xMidYMid meet">
<metadata>
Created by potrace 1.11, written by Peter Selinger 2001-2013
</metadata>
<g transform="translate(0.000000,680.000000) scale(0.100000,-0.100000)"
fill="#000000" stroke="none">
<path d="M3178 6796 c-1 -2 -38 -6 -80 -10 -88 -7 -148 -14 -198 -22 -19 -3
-46 -8 -60 -10 -14 -2 -34 -6 -46 -9 -12 -3 -39 -7 -60 -11 -44 -7 -329 -80
-329 -84 0 -1 -8 -3 -17 -5 -22 -4 -88 -24 -113 -34 -11 -5 -38 -15 -60 -24
-531 -202 -993 -518 -1354 -927 -17 -19 -39 -44 -49 -55 -50 -54 -177 -221
-207 -273 -5 -9 -13 -19 -17 -22 -3 -3 -38 -57 -78 -120 -96 -154 -270 -504
-270 -543 0 -7 -4 -17 -8 -22 -7 -8 -64 -155 -67 -175 -1 -3 -7 -25 -15 -50
-16 -55 -18 -59 -24 -88 -3 -12 -8 -27 -11 -32 -6 -10 -10 -25 -20 -82 -3 -14
-11 -53 -19 -85 -8 -32 -17 -76 -20 -98 -3 -22 -8 -51 -11 -65 -3 -14 -8 -41
-10 -60 -3 -19 -7 -48 -10 -65 -20 -134 -28 -588 -12 -725 4 -36 9 -85 12
-110 2 -25 6 -61 10 -80 3 -19 10 -60 15 -90 5 -30 12 -70 15 -89 3 -19 8 -37
10 -41 2 -4 7 -21 10 -39 18 -103 106 -394 149 -496 32 -75 36 -88 28 -99 -12
-17 -35 -91 -60 -196 -11 -43 -5 -303 7 -355 7 -27 14 -57 16 -65 2 -8 4 -16
5 -17 2 -2 3 -6 5 -10 22 -80 103 -233 160 -302 33 -40 130 -134 160 -156 16
-11 34 -25 40 -32 11 -11 174 -100 185 -101 5 -1 35 -10 60 -19 18 -7 20 -8
85 -23 93 -22 220 -30 292 -19 24 3 43 3 43 0 0 -3 22 -22 50 -41 27 -19 49
-38 50 -42 0 -5 6 -8 14 -8 8 0 16 -4 18 -9 3 -9 219 -156 280 -190 21 -12 55
-31 75 -43 68 -38 246 -125 343 -166 83 -35 347 -128 390 -137 8 -2 42 -10 75
-18 33 -9 71 -18 85 -21 14 -3 36 -8 50 -11 14 -3 36 -8 50 -11 31 -5 90 -16
110 -20 8 -2 40 -6 70 -9 30 -4 62 -8 70 -10 102 -26 694 -26 825 -1 11 2 40
7 65 10 25 3 55 8 66 10 12 2 37 7 55 10 19 3 66 12 104 21 39 8 79 17 90 19
40 7 151 38 239 67 50 17 96 32 101 33 11 3 61 22 90 35 11 5 52 21 90 36 74
30 269 124 345 168 25 14 63 36 85 48 22 12 42 25 45 29 3 3 12 10 20 14 27
13 111 66 120 76 3 3 28 22 55 40 61 42 149 112 153 122 2 5 11 5 20 0 36 -15
248 -3 320 20 18 5 39 11 45 12 42 8 200 75 205 88 2 5 7 6 12 3 4 -2 15 4 25
15 10 11 22 20 27 20 11 0 18 5 97 77 35 32 67 60 72 61 5 2 9 8 9 13 0 5 8
17 18 27 98 105 186 301 209 467 8 57 8 210 1 270 -8 55 -25 120 -50 182 -19
49 -19 56 -5 85 12 28 25 62 77 203 20 57 32 92 36 115 2 14 9 36 14 50 20 53
72 286 85 380 4 34 10 73 20 136 20 122 27 553 12 704 -4 41 -9 102 -12 134
-3 32 -7 62 -10 65 -2 4 -7 34 -10 66 -4 33 -11 65 -16 71 -5 6 -6 13 -3 16 7
7 -15 102 -60 263 -7 28 -14 52 -14 55 -3 19 -85 257 -109 315 -48 114 -56
130 -113 245 -67 135 -97 189 -116 211 -8 8 -14 19 -14 24 0 21 -222 334 -305
430 -245 282 -460 472 -745 660 -157 103 -341 204 -490 267 -19 8 -48 21 -65
28 -16 8 -32 14 -35 15 -3 1 -12 5 -20 8 -75 31 -306 107 -370 122 -8 2 -15 4
-15 5 0 1 -9 3 -20 5 -11 2 -38 8 -60 13 -36 9 -151 32 -230 47 -16 3 -66 10
-110 15 -44 6 -98 13 -120 16 -41 6 -540 15 -547 10z"/>
</g>
</svg>
